<?xml version="1.0" encoding="UTF-8" standalone="no"?>
<!-- Created with Inkscape (http://www.inkscape.org/) -->
<svg
   xmlns:dc="http://purl.org/dc/elements/1.1/"
   xmlns:cc="http://creativecommons.org/ns#"
   xmlns:rdf="http://www.w3.org/1999/02/22-rdf-syntax-ns#"
   xmlns:svg="http://www.w3.org/2000/svg"
   xmlns="http://www.w3.org/2000/svg"
   xmlns:sodipodi="http://sodipodi.sourceforge.net/DTD/sodipodi-0.dtd"
   xmlns:inkscape="http://www.inkscape.org/namespaces/inkscape"
   id="svg2"
   sodipodi:version="0.32"
   inkscape:version="0.46"
   width="300"
   height="122.39373"
   version="1.0"
   sodipodi:docname="Widescreen_logo.svg"
   inkscape:output_extension="org.inkscape.output.svg.inkscape">
  <metadata
     id="metadata7">
    <rdf:RDF>
      <cc:Work
         rdf:about="">
        <dc:format>image/svg+xml</dc:format>
        <dc:type
           rdf:resource="http://purl.org/dc/dcmitype/StillImage" />
      </cc:Work>
    </rdf:RDF>
  </metadata>
  <defs
     id="defs5">
    <inkscape:perspective
       sodipodi:type="inkscape:persp3d"
       inkscape:vp_x="0 : 526.18109 : 1"
       inkscape:vp_y="0 : 1000 : 0"
       inkscape:vp_z="744.09448 : 526.18109 : 1"
       inkscape:persp3d-origin="372.04724 : 350.78739 : 1"
       id="perspective9" />
  </defs>
  <sodipodi:namedview
     inkscape:window-height="977"
     inkscape:window-width="1280"
     inkscape:pageshadow="2"
     inkscape:pageopacity="0.0"
     guidetolerance="10.0"
     gridtolerance="10.0"
     objecttolerance="10.0"
     borderopacity="1.0"
     bordercolor="#666666"
     pagecolor="#ffffff"
     id="base"
     showgrid="false"
     inkscape:zoom="0.6875"
     inkscape:cx="395.19921"
     inkscape:cy="159.5"
     inkscape:window-x="-4"
     inkscape:window-y="-4"
     inkscape:current-layer="svg2" />
  <path
     style="fill:#000000"
     d="M 293.11677,121.45552 C 290.68389,121.0005 288.64793,120.57263 288.59242,120.50468 C 288.46456,120.34822 286.29391,100.53516 285.68799,93.99398 C 284.70822,83.41689 282.90754,66.65384 282.56696,64.9394 C 282.36972,63.94649 282.18635,75.76089 282.15939,91.19873 L 282.11039,119.26305 L 281.1041,119.22394 C 280.55064,119.20243 278.38712,118.94739 276.29627,118.65719 L 272.49473,118.12955 L 272.38121,61.27485 L 272.2677,4.42014 L 273.29857,4.16141 C 275.23899,3.6744 283.5807,2.51287 283.77102,2.70319 C 284.037,2.96917 285.93819,18.2765 286.80505,27.13157 C 287.55113,34.75277 288.93144,47.80522 289.57188,53.29512 C 289.80586,55.30082 290.01745,46.54203 290.16071,28.92053 L 290.38433,1.41526 L 295.19217,0.70763 L 300,0 L 300,61.19687 L 300,122.39373 L 298.77009,122.33828 C 298.09364,122.30777 295.54965,121.91054 293.11677,121.45552 z M 6.1483536,121.4077 C 5.9050726,119.2426 -0.1260504,0.17529 0.0020106017,0.06569 C 0.2550526,-0.15087 10.67707,1.53127 10.984019,1.83822 C 11.310026,2.16423 11.444576,5.78104 12.45737,41.44326 C 12.775224,52.63544 13.180098,61.18891 13.35709,60.45096 C 13.534081,59.71302 13.904057,52.66898 14.179258,44.79756 C 14.884808,24.6171 15.923142,2.91086 16.195991,2.63801 C 16.40525,2.42875 29.924936,4.23125 30.19858,4.50489 C 30.323177,4.62949 30.869736,17.62643 31.676709,39.65429 C 32.614093,65.24192 32.682856,65.41123 33.583893,44.35032 C 34.871449,14.25482 35.282588,5.46618 35.408826,5.33994 C 35.526472,5.2223 45.667582,6.56521 45.827592,6.71962 C 45.873592,6.76401 45.729672,10.01637 45.507772,13.94708 C 44.852672,25.55134 43.762802,45.50522 43.285322,54.63684 C 43.040942,59.3105 42.637002,66.75705 42.387672,71.18473 C 41.893562,79.95933 41.356302,90.24328 40.576872,105.84584 C 40.300392,111.38044 39.941072,116.03232 39.778382,116.18336 C 39.447402,116.49063 27.634713,118.07968 27.415946,117.84636 C 27.22539,117.64313 26.019648,102.12632 24.954295,86.16727 C 23.703293,67.42713 23.099662,59.58462 22.891731,59.37013 C 22.792372,59.26764 22.711082,59.56729 22.711082,60.03601 C 22.711082,60.50474 22.412518,65.51942 22.047605,71.17975 C 21.682689,76.84008 20.858322,89.92409 20.215669,100.25534 C 19.573021,110.58659 18.969815,119.1194 18.875214,119.21713 C 18.780614,119.31487 16.535799,119.75942 13.886735,120.20503 C 11.237672,120.65063 8.4161666,121.13325 7.6167246,121.2775 C 6.8172826,121.42176 6.1565156,121.48035 6.1483536,121.4077 z M 259.52476,116.31094 C 257.06494,115.97049 253.39198,115.46836 251.36263,115.1951 L 247.6729,114.69826 L 247.6729,61.29925 C 247.6729,31.92979 247.72321,7.89442 247.78471,7.8873 C 247.8462,7.88018 251.92168,7.29708 256.84132,6.59153 C 261.76096,5.88598 265.93707,5.40054 266.12155,5.51277 C 266.30604,5.625 266.45698,8.81212 266.45698,12.59525 L 266.45698,19.47368 L 264.33259,19.7484 C 263.16418,19.89949 261.45348,20.13077 260.53105,20.26235 L 258.8539,20.50159 L 258.8539,34.99758 L 258.8539,49.49358 L 262.66709,49.49358 L 266.48028,49.49358 L 266.35682,56.31399 L 266.23336,63.1344 L 262.5389,63.26438 L 258.84443,63.39435 L 258.96097,82.71933 L 259.07752,102.0443 L 262.65544,102.49154 L 266.23336,102.93878 L 266.35653,109.98281 L 266.4797,117.02685 L 265.23843,116.97839 C 264.55573,116.95175 261.98458,116.65139 259.52476,116.31094 z M 50.233652,112.44264 C 50.084782,111.15123 49.919352,87.00024 49.866042,58.77377 C 49.769612,7.71895 49.773752,7.45291 50.663592,7.45231 C 51.155562,7.45198 53.721602,7.68607 56.365902,7.97251 L 61.173742,8.49331 L 61.173742,30.93223 C 61.173742,43.27364 61.307102,66.95714 61.470102,83.56224 L 61.766472,113.75333 L 57.205292,114.27199 C 50.152582,115.07396 50.548992,115.17798 50.233652,112.44264 z M 232.24311,113.20099 C 229.53731,112.89158 226.36749,112.61953 225.19908,112.59644 L 223.07469,112.55445 L 223.07469,61.59647 L 223.07469,10.63849 L 224.97546,10.38467 C 226.02088,10.24506 228.88881,9.93561 231.34863,9.69699 C 233.80845,9.45837 237.05326,9.13175 238.55933,8.97117 L 241.29762,8.6792 L 241.62744,15.27693 C 242.00302,22.78995 242.06739,22.63778 238.50447,22.65843 C 237.27456,22.66555 235.81544,22.79274 235.26198,22.94106 L 234.25569,23.21073 L 234.25569,36.57577 L 234.25569,49.94082 L 237.83361,49.94082 L 241.41153,49.94082 L 241.41153,56.64942 L 241.41153,63.35802 L 237.83361,63.35802 L 234.25569,63.35802 L 234.25569,81.45099 L 234.25569,99.54395 L 235.70922,99.76816 C 236.50866,99.89148 238.11404,100.11348 239.27672,100.26151 C 240.4394,100.40953 241.5178,100.73632 241.67317,100.98771 C 241.82854,101.2391 241.8106,104.24634 241.63331,107.67047 L 241.31096,113.89617 L 239.23685,113.82985 C 238.0961,113.79338 234.94891,113.51039 232.24311,113.20099 z M 67.882342,61.20701 L 67.882342,9.41234 L 71.348452,9.78795 C 73.254812,9.99454 77.605312,10.44489 81.016242,10.78872 C 86.408412,11.33228 87.488412,11.57861 89.290182,12.67593 C 92.118292,14.39831 93.776762,17.72093 94.332412,22.77765 C 94.557252,24.8238 94.685152,43.87491 94.616972,65.16378 L 94.493132,103.83326 L 93.320612,106.33357 C 92.154452,108.82034 90.595352,110.31409 88.225522,111.2151 C 87.088862,111.64726 72.776172,113.00169 69.346082,113.00169 L 67.882342,113.00169 L 67.882342,61.20701 z M 82.698322,97.95126 C 83.378622,97.1325 83.397182,95.38756 83.200322,50.75544 C 83.077042,22.80823 83.206212,24.00089 80.302722,24.00089 L 78.922552,24.00089 L 79.215202,31.71578 C 79.376162,35.95897 79.508462,52.76402 79.509222,69.06034 L 79.510582,98.69 L 80.797542,98.69 C 81.505372,98.69 82.360722,98.35757 82.698322,97.95126 z M 208.42757,111.32883 L 205.63232,111.17005 L 205.63232,91.84529 C 205.63232,80.53968 205.45012,71.88525 205.19325,70.9896 C 204.70187,69.27626 204.09121,68.74181 202.61345,68.73175 L 201.60716,68.72491 L 201.60716,89.72314 L 201.60716,110.72138 L 196.12846,110.45814 C 193.11518,110.31336 190.61859,110.17234 190.58048,110.14476 C 190.34926,109.97745 190.32516,104.22242 190.37316,60.6288 L 190.42615,12.50469 L 197.6938,12.10868 C 208.38489,11.52612 210.11933,11.5904 211.90874,12.63547 C 214.04427,13.88268 215.8296,16.6252 216.36292,19.47772 C 216.95317,22.6348 216.9304,50.90333 216.33552,53.48427 C 215.88549,55.43675 214.62832,58.26126 213.02556,60.9208 L 212.20335,62.28512 L 213.83321,64.65452 C 216.77423,68.93 216.81332,69.28372 216.81332,91.61533 L 216.81332,111.65997 L 214.01807,111.57379 C 212.48068,111.5264 209.96496,111.41616 208.42757,111.32883 z M 204.15081,55.40356 C 205.41201,54.60162 205.63232,52.27009 205.63232,39.72469 C 205.63232,25.48287 205.525,24.89537 202.92352,24.89537 L 201.60716,24.89537 L 201.60716,40.32515 L 201.60716,55.75494 L 202.61345,55.74809 C 203.16691,55.74433 203.85872,55.58929 204.15081,55.40356 z M 101.23403,99.07047 C 101.07166,92.58867 100.89734,70.41114 100.84666,49.78708 L 100.75449,12.28877 L 107.68672,12.56558 C 111.49944,12.71782 115.67554,12.95243 116.96695,13.08694 L 119.31496,13.33149 L 119.31496,19.56067 L 119.31496,25.78985 L 115.73704,25.78985 L 112.15912,25.78985 L 112.15912,38.08895 L 112.15912,50.38806 L 115.73704,50.38806 L 119.31496,50.38806 L 119.38205,56.20218 C 119.41894,59.39995 119.46926,62.26788 119.49386,62.57535 C 119.52562,62.97241 118.44869,63.17238 115.77746,63.26545 L 112.01634,63.39651 L 112.31135,75.52541 C 112.4736,82.19631 112.60636,89.73483 112.60636,92.27768 L 112.60636,96.90104 L 116.18428,96.90104 L 119.7622,96.90104 L 119.7622,103.32876 L 119.7622,109.75647 L 112.94179,110.05247 C 109.19056,110.21528 105.08815,110.46257 103.82531,110.60202 L 101.52925,110.85557 L 101.23403,99.07047 z M 168.06414,109.41236 C 162.6494,108.98812 160.18013,107.27873 158.34544,102.68445 C 157.60947,100.8415 157.554,97.95956 157.554,61.56906 C 157.554,19.35411 157.47237,20.88577 159.91979,17.18004 C 161.93946,14.12199 163.38244,13.58225 170.15224,13.35265 C 178.61741,13.06555 180.65615,13.94648 182.90529,18.8632 C 183.87631,20.98588 183.93348,21.70526 184.08652,33.72836 L 184.24734,46.3629 L 178.39194,46.3629 L 172.53654,46.3629 L 172.53654,37.16507 C 172.53654,31.68005 172.34966,27.61805 172.07357,27.10217 C 171.48367,25.99993 170.01921,25.98551 169.4355,27.07619 C 168.74278,28.37055 168.73719,94.97724 169.42974,95.81171 C 170.07883,96.59382 171.27412,96.64284 171.99986,95.91711 C 172.39243,95.52453 172.53654,91.92177 172.53654,82.4999 L 172.53654,69.61939 L 178.35067,69.61939 L 184.16479,69.61939 L 184.16479,84.09365 C 184.16479,92.05449 183.96014,99.65199 183.71001,100.97697 C 183.10218,104.19673 181.2012,107.18083 179.0032,108.36558 C 176.98437,109.45375 173.2065,109.81527 168.06414,109.41236 z M 131.93118,108.98348 C 129.50333,108.40826 127.36403,106.24208 126.18233,103.1624 C 125.51741,101.4295 125.3857,98.95899 125.23457,85.3846 L 125.05906,69.61939 L 130.68457,69.61939 L 136.31009,69.61939 L 136.31258,81.13582 C 136.31404,87.84515 136.51234,93.36264 136.78767,94.35413 C 137.38215,96.49493 138.40752,96.94638 139.52918,95.56119 C 140.31992,94.58467 140.36458,93.69983 140.2422,81.43389 L 140.11163,68.34835 L 138.99353,67.14135 C 138.37857,66.47749 135.6041,64.0244 132.82803,61.69004 C 125.04906,55.14881 125.01782,55.04594 125.09659,36.23283 C 125.16051,20.96654 125.4097,19.07591 127.69083,16.54987 C 130.04125,13.94711 131.41624,13.54938 138.09905,13.53919 C 144.98566,13.52868 146.67919,14.05186 148.93813,16.8877 C 151.15869,19.67535 151.50507,22.09315 151.51095,34.84646 L 151.51625,46.3629 L 145.92575,46.3629 L 140.33525,46.3629 L 140.33525,37.44721 C 140.33525,27.46996 140.07652,26.10345 138.22833,26.31921 C 137.37837,26.41844 136.92416,26.7947 136.70779,27.57881 C 136.53809,28.19376 136.37919,33.0711 136.35467,38.41733 L 136.31009,48.13775 L 137.54,49.42907 C 138.21645,50.1393 141.11335,52.75183 143.97757,55.23471 C 151.75933,61.98043 151.26171,60.22961 151.43462,81.47125 C 151.55969,96.83597 151.4852,99.25388 150.80931,101.77017 C 149.75811,105.6837 147.34682,108.21795 144.00297,108.92361 C 141.35218,109.48301 134.18949,109.51854 131.93118,108.98348 z"
     id="path2384" />
</svg>
